PathFileType	4	(X/Y/Z)	C:/Users/opensim2020/Desktop/walking_exp_matlab/subject03_walking16_run.trc	
DataRate	CameraRate	NumFrames	NumMarkers	Units	OrigDataRate	OrigDataStartFrame	OrigNumFrames	
100.00	100.00	6	49	mm	100.00	305	131	
Frame#	Time	RKNE			RTOE			RWRB			LTHI			RELB			RFRM			RUPA			RASI			LTIB			RWRA			RTHI			LSHO			LTOE			RTIB			LWRA			CLAV			LASI			RSHO			RFHD			STRN			LHEE			RFIN			RBHD			LFRM			C7			LWRB			LFIN			LUPA			LBHD			LELB			RANK			RHEE			RBAK			LPSI			T10			LFHD			RPSI			LKNE			LANK			*39			*40			*41			*42			*43			*44			*45			*46			*47			*48			
		X1	Y1	Z1	X2	Y2	Z2	X3	Y3	Z3	X4	Y4	Z4	X5	Y5	Z5	X6	Y6	Z6	X7	Y7	Z7	X8	Y8	Z8	X9	Y9	Z9	X10	Y10	Z10	X11	Y11	Z11	X12	Y12	Z12	X13	Y13	Z13	X14	Y14	Z14	X15	Y15	Z15	X16	Y16	Z16	X17	Y17	Z17	X18	Y18	Z18	X19	Y19	Z19	X20	Y20	Z20	X21	Y21	Z21	X22	Y22	Z22	X23	Y23	Z23	X24	Y24	Z24	X25	Y25	Z25	X26	Y26	Z26	X27	Y27	Z27	X28	Y28	Z28	X29	Y29	Z29	X30	Y30	Z30	X31	Y31	Z31	X32	Y32	Z32	X33	Y33	Z33	X34	Y34	Z34	X35	Y35	Z35	X36	Y36	Z36	X37	Y37	Z37	X38	Y38	Z38	X39	Y39	Z39	X40	Y40	Z40	X41	Y41	Z41	X42	Y42	Z42	X43	Y43	Z43	X44	Y44	Z44	X45	Y45	Z45	X46	Y46	Z46	X47	Y47	Z47	X48	Y48	Z48	X49	Y49	Z49	

115	1.140	347.69647	2177.13379	523.16583	269.88171	2405.02588	82.19076	448.32922	1884.34851	1007.26770	80.84493	1922.14917	665.62146	485.46179	1768.09326	1197.47070	466.65524	1834.13428	1091.43115	468.71655	1818.86401	1281.41821	345.61163	2061.64014	962.30682	130.09465	1704.19666	370.54819	421.37799	1912.89941	1043.31921	387.28262	2085.41138	676.87054	94.11405	1995.13623	1420.70471	222.26604	1575.33032	73.48134	353.24728	2207.30444	335.18469	182.55067	2130.03662	1255.17334	244.02066	2034.33936	1371.43799	114.78379	2061.34302	953.90332	383.34534	1964.10938	1409.43604	295.04050	1998.84302	1660.46216	244.99965	2093.40845	1210.04810	212.53610	1522.27246	251.39406	459.83194	1949.21814	986.01428	286.42734	1895.19397	1583.01587	84.94051	2114.85986	1194.16174	219.35347	1905.61670	1433.87122	173.73979	2177.70972	1224.15918	243.94351	2193.56299	1272.89124	4.34139	2037.17664	1247.09436	156.82578	1910.84143	1571.14807	-0.89285	2067.88696	1148.72400	307.12903	2261.24829	124.87808	254.18483	2221.68042	101.15567	293.64932	1852.30469	1282.75256	162.85336	1907.45984	1000.16901	221.07289	1894.06592	1127.50342	164.37178	2019.94629	1649.52747	309.72171	1904.31006	998.29126	118.77761	1865.75684	493.43570	174.88005	1558.87488	224.19229																						199.16841	1918.01147	1685.77722						 
116	1.150	346.51968	2206.08545	518.49634	266.29507	2445.51416	82.92224	448.61148	1917.30591	1005.97137	79.82620	1957.38184	662.75336	487.07831	1800.21924	1195.71777	467.44266	1866.72681	1090.17175	469.97589	1850.57959	1279.34424	345.03662	2093.35645	958.91571	126.83739	1734.55127	373.60953	421.56268	1945.39087	1042.30737	388.40549	2114.12769	670.66577	93.77367	2024.65540	1418.95642	216.13382	1599.06396	82.16882	350.36804	2240.58032	333.47028	181.71275	2161.29614	1251.91199	243.96051	2065.25098	1369.83948	114.49805	2093.82617	952.19232	383.43018	1995.08899	1407.22620	294.61691	2028.76111	1658.77649	244.37631	2124.95142	1208.45984	211.33804	1545.72498	260.73044	459.28174	1982.43286	984.63635	286.52747	1925.29285	1580.93494	83.66034	2145.84229	1192.04272	219.67632	1936.19238	1431.06091	173.51540	2208.10693	1220.44824	245.51819	2223.58276	1267.72705	3.19512	2067.75146	1245.29309	156.92844	1940.73633	1568.73010	-3.73617	2099.87744	1147.11499	302.33102	2300.74634	125.25784	248.20522	2262.69214	102.62356	295.42639	1883.52783	1278.30835	162.47922	1939.43970	997.82416	221.46674	1926.00024	1124.00073	163.93977	2050.02466	1647.70190	309.64554	1936.32080	995.03589	117.29179	1901.30066	489.65222	172.79008	1582.86523	234.05899																						199.08923	1947.06201	1683.43982						 
117	1.160	345.48752	2236.03857	514.40289	261.60745	2479.96729	81.78587	449.18341	1951.81726	1002.52930	78.64555	1993.77600	658.58276	489.04617	1833.28870	1191.46985	468.71249	1900.79895	1086.55774	471.64645	1883.25159	1275.41064	344.49393	2124.66211	954.95001	123.93265	1767.31689	375.30414	422.04065	1979.37366	1039.23901	389.89395	2143.41211	664.64227	93.10176	2054.20020	1416.36975	209.92767	1624.64539	90.76171	347.39606	2272.28906	330.64850	181.36066	2194.24316	1245.06335	243.76575	2096.31104	1367.31104	114.12696	2125.82520	949.78967	383.47107	2026.16223	1403.84265	294.28171	2058.56909	1656.36792	244.61292	2156.56250	1205.89124	209.72552	1571.54041	269.61349	459.11008	2017.44299	981.40875	286.74738	1955.52698	1578.05188	82.38648	2177.46631	1186.97534	219.88536	1966.76697	1427.28418	173.00410	2238.45459	1212.30847	246.95499	2256.00244	1257.32886	1.49402	2097.37158	1242.58069	157.02928	1970.68079	1565.54993	-6.69559	2130.57007	1143.95618	297.88235	2334.56201	122.98135	242.79631	2297.02222	101.40740	296.85318	1914.33411	1273.05115	162.42458	1970.76892	993.99628	221.60989	1957.62891	1119.63660	163.55591	2079.66675	1645.04333	309.87598	1967.87463	990.95001	114.94782	1939.02344	484.46432	170.43489	1609.13440	243.45663																						198.68298	1976.32581	1680.44971						 
118	1.170	344.08496	2266.72559	510.98984	256.02350	2508.46655	76.90068	450.23303	1987.93347	997.10602	77.30441	2031.25696	653.28394	491.95923	1867.81775	1184.80261	470.70758	1936.43188	1080.73975	473.59052	1916.64429	1269.64441	344.04117	2155.82373	950.65375	121.35350	1802.68823	375.86975	423.13290	2014.80334	1034.16980	390.76138	2173.33887	659.12360	92.24834	2084.17749	1413.00732	204.06870	1651.92310	98.93756	344.58325	2301.85767	326.43268	181.39088	2228.27881	1234.56921	243.40887	2127.35034	1363.87488	113.63515	2157.39355	946.77618	383.49811	2057.24536	1399.46936	294.02414	2088.22681	1652.90845	243.58775	2187.61499	1202.55884	207.60019	1600.18262	278.18100	459.41479	2054.05933	976.54431	286.77560	1985.61487	1574.11023	80.95333	2209.50269	1179.04272	220.31802	1997.52881	1422.57764	172.20802	2270.30322	1200.19324	247.70624	2290.46729	1241.97034	-0.69915	2126.00977	1239.01990	157.18590	2000.55139	1561.52393	-9.80708	2159.85522	1139.44885	293.11475	2363.34326	118.51561	237.70505	2326.05029	98.18043	298.39969	1945.50940	1267.28186	162.60620	2001.40503	988.80365	221.81732	1989.14136	1114.50085	163.26361	2109.28735	1641.64465	310.05649	1998.86145	986.00037	111.77000	1979.01208	478.59540	167.51837	1638.15515	252.36198																						199.17369	2005.61035	1677.78210						 
119	1.180	342.50305	2298.01196	507.89905	250.44737	2531.39038	67.55003	451.94104	2025.76917	990.09424	75.68784	2069.51245	646.84662	495.31567	1903.67847	1176.13440	472.77768	1973.30652	1072.91992	475.55658	1950.70178	1261.91956	343.57458	2186.52930	946.00739	118.92587	1840.28052	375.01089	424.74121	2051.92725	1027.49646	390.65341	2203.87720	654.27954	91.40067	2114.65112	1408.61768	198.50909	1680.96985	106.31113	341.17636	2329.46191	320.71405	181.30922	2263.03149	1220.67249	242.98129	2158.32690	1359.45947	113.18552	2188.57178	943.14929	383.56119	2088.25195	1394.22253	294.03488	2117.89258	1648.60596	244.69791	2219.06177	1199.24182	204.54771	1631.55945	286.34045	460.20142	2092.16992	970.05756	286.87958	2015.69824	1569.15173	79.23076	2241.30273	1168.42053	220.54749	2028.34009	1417.12598	170.14198	2303.06982	1185.16077	247.30084	2326.25903	1222.23071	-3.21345	2154.03833	1234.75500	157.25201	2030.46326	1556.66833	-12.40356	2187.58350	1133.56360	288.35986	2387.32690	111.84230	232.57195	2349.86230	93.32934	299.69528	1976.60974	1260.96228	162.69951	2031.65625	982.42871	221.39841	2019.48303	1109.09290	163.21822	2138.74561	1637.39844	309.99728	2029.34619	980.33685	108.86150	2020.22656	470.75775	164.10591	1669.85168	259.88113																						199.20589	2035.10181	1672.06799						 
120	1.190	340.42877	2329.35034	504.24948	245.62009	2549.10132	54.97356	454.07330	2064.86304	981.42261	74.02505	2108.04956	639.28119	498.85449	1940.72083	1165.44653	475.46497	2011.42004	1063.23108	477.58118	1985.30493	1252.43921	343.42682	2216.90234	940.93402	116.23155	1879.80151	373.13812	426.76318	2090.43579	1019.35925	389.28522	2235.07837	650.16968	90.71410	2145.62793	1403.08765	192.98569	1712.20630	112.98047	338.08301	2356.08813	313.83517	181.27161	2297.77979	1203.02832	242.49158	2189.13647	1354.01550	112.49809	2219.39844	938.83771	383.60855	2119.25781	1388.15906	294.16959	2147.51416	1643.17871	240.35948	2248.95166	1191.68896	201.02888	1665.89807	293.42523	461.44006	2131.72510	961.94641	286.96725	2045.70105	1563.10925	77.06419	2272.69336	1155.46875	220.83636	2059.05786	1411.03650	167.40067	2335.89087	1166.79907	245.46498	2362.82275	1198.74146	-5.70864	2181.58203	1229.72437	157.32359	2060.38477	1551.03870	-14.69350	2214.25684	1126.91284	283.65344	2406.64819	103.47864	227.84064	2368.72046	86.49301	300.50864	2007.85925	1254.20154	162.48232	2061.59326	974.90021	221.11580	2049.90649	1103.25610	163.25246	2168.35840	1632.41211	309.65012	2059.09619	974.03180	105.75336	2062.70532	461.96335	160.49113	1704.15076	266.49316																						199.44043	2064.59351	1666.64771						 
